<svg version="1.1" xmlns="http://www.w3.org/2000/svg" xmlns:xlink="http://www.w3.org/1999/xlink" width="19" height="20"><defs/><g><path fill="rgb(255,255,255)" stroke="none" paint-order="stroke fill markers" fill-rule="evenodd" d=" M 16.663122177124023 6.000383257865906 C 16.663122177124023 6.000383257865906 10.987396240234375 6.000383257865906 10.987396240234375 6.000383257865906 C 10.987396240234375 6.000383257865906 13.226289749145508 3.3126989603042603 13.226289749145508 3.3126989603042603 C 13.262081146240234 3.3189735412597656 13.29289436340332 3.3328930139541626 13.330059051513672 3.3328930139541626 C 13.698530197143555 3.3328930139541626 13.996706008911133 3.0345979928970337 13.996706008911133 2.6658401489257812 C 13.996706008911133 2.2989574670791626 13.698530197143555 1.9986430406570435 13.330059051513672 1.9986430406570435 C 12.963390350341797 1.9986430406570435 12.663412094116211 2.2989574670791626 12.663412094116211 2.6658401489257812 C 12.663412094116211 2.746399998664856 12.683496475219727 2.8204689025878906 12.709245681762695 2.891580820083618 C 12.709245681762695 2.891580820083618 10.119476318359375 6.000383257865906 10.119476318359375 6.000383257865906 C 10.119476318359375 6.000383257865906 9.875545501708984 6.000383257865906 9.875545501708984 6.000383257865906 C 9.875545501708984 6.000383257865906 7.286977767944336 2.891580820083618 7.286977767944336 2.891580820083618 C 7.312126159667969 2.8204689025878906 7.331609725952148 2.746399998664856 7.331609725952148 2.6658401489257812 C 7.331609725952148 2.2989574670791626 7.033519744873047 1.9986430406570435 6.6649627685546875 1.9986430406570435 C 6.297693252563477 1.9986430406570435 5.998315811157227 2.2989574670791626 5.998315811157227 2.6658401489257812 C 5.998315811157227 3.0345979928970337 6.297693252563477 3.3328930139541626 6.6649627685546875 3.3328930139541626 C 6.7020416259765625 3.3328930139541626 6.734142303466797 3.3189735412597656 6.768732070922852 3.3126989603042603 C 6.768732070922852 3.3126989603042603 9.00822639465332 6.000383257865906 9.00822639465332 6.000383257865906 C 9.00822639465332 6.000383257865906 3.3324146270751953 6.000383257865906 3.3324146270751953 6.000383257865906 C 2.596588134765625 6.000383257865906 1.999807357788086 6.598271489143372 1.999807357788086 7.3338398933410645 C 1.999807357788086 7.3338398933410645 1.999807357788086 16.671353936195374 1.999807357788086 16.671353936195374 C 1.999807357788086 17.40757143497467 2.596588134765625 18.004666328430176 3.3324146270751953 18.004666328430176 C 3.3324146270751953 18.004666328430176 16.663122177124023 18.004666328430176 16.663122177124023 18.004666328430176 C 17.39903450012207 18.004666328430176 17.99581527709961 17.40757143497467 17.99581527709961 16.671353936195374 C 17.99581527709961 16.671353936195374 17.99581527709961 7.3338398933410645 17.99581527709961 7.3338398933410645 C 17.99581527709961 6.598271489143372 17.39903450012207 6.000383257865906 16.663122177124023 6.000383257865906 Z M 13.996706008911133 15.337320327758789 C 13.996706008911133 16.073537826538086 13.400440216064453 16.671353936195374 12.663412094116211 16.671353936195374 C 12.663412094116211 16.671353936195374 4.665708541870117 16.671353936195374 4.665708541870117 16.671353936195374 C 3.929882049560547 16.671353936195374 3.3324146270751953 16.073537826538086 3.3324146270751953 15.337320327758789 C 3.3324146270751953 15.337320327758789 3.3324146270751953 8.667945623397827 3.3324146270751953 8.667945623397827 C 3.3324146270751953 7.9311511516571045 3.929882049560547 7.3338398933410645 4.665708541870117 7.3338398933410645 C 4.665708541870117 7.3338398933410645 12.663412094116211 7.3338398933410645 12.663412094116211 7.3338398933410645 C 13.400440216064453 7.3338398933410645 13.996706008911133 7.9311511516571045 13.996706008911133 8.667945623397827 C 13.996706008911133 8.667945623397827 13.996706008911133 15.337320327758789 13.996706008911133 15.337320327758789 Z M 15.960683822631836 9.376684784889221 C 15.43497085571289 9.376684784889221 15.008563995361328 8.949292063713074 15.008563995361328 8.423741817474365 C 15.008563995361328 7.897686719894409 15.43497085571289 7.471808552742004 15.960683822631836 7.471808552742004 C 16.485881805419922 7.471808552742004 16.912202835083008 7.897686719894409 16.912202835083008 8.423741817474365 C 16.912202835083008 8.949292063713074 16.485881805419922 9.376684784889221 15.960683822631836 9.376684784889221 Z"/></g></svg>