<svg height="472pt" viewBox="-20 0 472 472" width="472pt" xmlns="http://www.w3.org/2000/svg"><path d="m256 408v64h-256v-64l48-232v-64h160v64l26.238281 126.960938zm0 0" fill="#898890"/><path d="m432 408v64h-176v-64l-21.761719-105.039062 21.761719-86.960938v-64h128v64l14.878906 59.441406zm0 0" fill="#acabb1"/><path d="m432 408v64h-176v-23.519531c58.738281-47.523438 107.328125-106.371094 142.878906-173.039063zm0 0" fill="#929196"/><path d="m105.375 382.625-22.632812 22.632812c24.996093 24.992188 65.519531 24.992188 90.515624 0l-22.632812-22.632812c-12.496094 12.492188-32.753906 12.492188-45.25 0zm0 0" fill="#ff5023"/><path d="m168.703125 354.625 30.914063 8.277344c9.15625-34.144532-11.105469-69.25-45.257813-78.398438l-8.28125 30.929688c17.070313 4.574218 27.199219 22.121094 22.625 39.191406zm0 0" fill="#ff5023"/><path d="m87.296875 354.625c-4.582031-17.074219 5.550781-34.625 22.625-39.199219l-8.320313-30.90625c-34.152343 9.148438-54.417968 44.253907-45.257812 78.402344zm0 0" fill="#ff5023"/><g fill="#57565c"><path d="m96 64h-16v-16c0-13.253906 10.746094-24 24-24h32c4.417969 0 8-3.582031 8-8v-16h16v16c0 13.253906-10.746094 24-24 24h-32c-4.417969 0-8 3.582031-8 8zm0 0"/><path d="m144 88h-16v-16c0-13.253906 10.746094-24 24-24h32c4.417969 0 8-3.582031 8-8v-16h16v16c0 13.253906-10.746094 24-24 24h-32c-4.417969 0-8 3.582031-8 8zm0 0"/><path d="m296 104h-16v-16c0-13.253906 10.746094-24 24-24h32c4.417969 0 8-3.582031 8-8v-16h16v16c0 13.253906-10.746094 24-24 24h-32c-4.417969 0-8 3.582031-8 8zm0 0"/><path d="m344 128h-16v-16c0-13.253906 10.746094-24 24-24h32c4.417969 0 8-3.582031 8-8v-16h16v16c0 13.253906-10.746094 24-24 24h-32c-4.417969 0-8 3.582031-8 8zm0 0"/></g><path d="m144 352c0 8.835938-7.164062 16-16 16s-16-7.164062-16-16 7.164062-16 16-16 16 7.164062 16 16zm0 0" fill="#ff5023"/><path d="m392 32h16v16h-16zm0 0" fill="#57565c"/><path d="m344 8h16v16h-16zm0 0" fill="#57565c"/></svg>