<svg version="1.1" xmlns="http://www.w3.org/2000/svg" xmlns:xlink="http://www.w3.org/1999/xlink" width="73" height="73"><defs/><g><path fill="rgb(255,255,255)" stroke="none" paint-order="stroke fill markers" fill-rule="evenodd" d=" M 36.63706970214844 1.543278455734253 C 17.191268920898438 1.543278455734253 1.4266891479492188 17.308448314666748 1.4266891479492188 36.75473189353943 C 1.4266891479492188 56.20152688026428 17.191268920898438 71.9661853313446 36.63706970214844 71.9661853313446 C 56.083900451660156 71.9661853313446 71.8495101928711 56.20152688026428 71.8495101928711 36.75473189353943 C 71.8495101928711 17.308448314666748 56.083900451660156 1.543278455734253 36.63706970214844 1.543278455734253 Z M 44.18833923339844 49.33894491195679 C 40.833160400390625 49.33894491195679 34.02964782714844 45.89256739616394 30.765907287597656 42.627739667892456 C 27.502166748046875 39.36393475532532 24.05474853515625 32.561187505722046 24.05474853515625 29.205329179763794 C 24.05474853515625 29.205329179763794 27.409927368164062 24.171030282974243 29.087860107421875 24.171030282974243 C 30.765907287597656 24.171030282974243 35.79901885986328 29.205329179763794 34.1209716796875 30.88325834274292 C 32.44303894042969 32.561187505722046 30.765907287597656 32.561187505722046 30.765907287597656 34.239628076553345 C 30.765907287597656 35.916534423828125 32.44303894042969 37.5954864025116 34.1209716796875 39.27239274978638 C 35.79901885986328 40.94981050491333 37.47706604003906 42.627739667892456 39.15522766113281 42.627739667892456 C 40.833160400390625 42.627739667892456 40.833160400390625 40.94981050491333 42.510292053222656 39.27239274978638 C 44.18833923339844 37.5954864025116 49.22145080566406 42.627739667892456 49.22145080566406 44.304646015167236 C 49.22145080566406 45.98359799385071 44.18833923339844 49.33894491195679 44.18833923339844 49.33894491195679 Z"/></g></svg>