<svg version="1.1" xmlns="http://www.w3.org/2000/svg" xmlns:xlink="http://www.w3.org/1999/xlink" width="74" height="73"><defs/><g><path fill="rgb(255,255,255)" stroke="none" paint-order="stroke fill markers" fill-rule="evenodd" d=" M 37.011268615722656 1.346386432647705 C 17.59270477294922 1.346386432647705 1.8502120971679688 17.089565753936768 1.8502120971679688 36.508233308792114 C 1.8502120971679688 55.92792367935181 17.59270477294922 71.6705915927887 37.011268615722656 71.6705915927887 C 56.43086242675781 71.6705915927887 72.17427062988281 55.92792367935181 72.17427062988281 36.508233308792114 C 72.17427062988281 17.089565753936768 56.43086242675781 1.346386432647705 37.011268615722656 1.346386432647705 Z M 50.41676330566406 38.97117352485657 C 50.41676330566406 38.97117352485657 47.03423309326172 38.97117352485657 47.03423309326172 38.97117352485657 C 47.03423309326172 38.97117352485657 46.97174835205078 47.97348594665527 46.97174835205078 47.97348594665527 C 46.97174835205078 47.97348594665527 38.97827911376953 47.96223497390747 38.97827911376953 47.96223497390747 C 38.97827911376953 47.96223497390747 39.009521484375 41.94654440879822 39.009521484375 41.94654440879822 C 39.009521484375 41.94654440879822 35.030982971191406 41.97774028778076 35.030982971191406 41.97774028778076 C 35.030982971191406 41.97774028778076 34.98966979980469 47.96223497390747 34.98966979980469 47.96223497390747 C 34.98966979980469 47.96223497390747 27.02263641357422 47.96223497390747 27.02263641357422 47.96223497390747 C 27.02263641357422 47.96223497390747 26.99139404296875 39.00236940383911 26.99139404296875 39.00236940383911 C 26.99139404296875 39.00236940383911 23.639877319335938 39.00236940383911 23.639877319335938 39.00236940383911 C 23.639877319335938 39.00236940383911 23.60863494873047 38.60193705558777 23.60863494873047 38.60193705558777 C 23.60863494873047 38.60193705558777 37.012184143066406 25.198448657989502 37.012184143066406 25.198448657989502 C 37.012184143066406 25.198448657989502 41.97674560546875 30.22354221343994 41.97674560546875 30.22354221343994 C 41.97674560546875 30.22354221343994 42.039344787597656 26.003916025161743 42.039344787597656 26.003916025161743 C 42.039344787597656 26.003916025161743 44.98448181152344 26.003916025161743 44.98448181152344 26.003916025161743 C 44.98448181152344 26.003916025161743 44.98448181152344 33.075663805007935 44.98448181152344 33.075663805007935 C 44.98448181152344 33.075663805007935 50.41676330566406 38.60193705558777 50.41676330566406 38.60193705558777 C 50.41676330566406 38.60193705558777 50.41676330566406 38.97117352485657 50.41676330566406 38.97117352485657 Z"/></g></svg>