<svg version="1.1" xmlns="http://www.w3.org/2000/svg" xmlns:xlink="http://www.w3.org/1999/xlink" width="34" height="34"><defs/><g><path fill="rgb(149,225,211)" stroke="none" paint-order="stroke fill markers" fill-rule="evenodd" d=" M 31.73963165283203 11.502810180187225 C 30.156341552734375 7.806583106517792 27.19312286376953 4.843043625354767 23.49736785888672 3.2600250840187073 C 24.496780395507812 2.473285138607025 25.754714965820312 1.9999296069145203 27.12560272216797 1.9999296069145203 C 30.369888305664062 1.9999296069145203 32.999969482421875 4.629616320133209 32.999969482421875 7.873949825763702 C 32.999969482421875 9.244932115077972 32.526641845703125 10.502642929553986 31.73963165283203 11.502810180187225 Z M 31.49999237060547 17.99972414970398 C 31.49999237060547 21.851947903633118 29.987770080566406 25.34289526939392 27.5374755859375 27.93979287147522 C 27.5374755859375 27.93979287147522 29.565597534179688 29.96765035390854 29.565597534179688 29.96765035390854 C 29.833961486816406 30.236521065235138 30.000015258789062 30.607137382030487 30.000015258789062 31.0166038274765 C 30.000015258789062 31.83563607931137 29.335914611816406 32.49966526031494 28.516860961914062 32.49966526031494 C 28.107276916503906 32.49966526031494 27.736488342285156 32.33393120765686 27.468124389648438 32.0651598572731 C 27.468124389648438 32.0651598572731 25.289627075195312 29.88657182455063 25.289627075195312 29.88657182455063 C 22.939125061035156 31.529206931591034 20.084854125976562 32.49966526031494 16.999984741210938 32.49966526031494 C 13.921180725097656 32.49966526031494 11.071830749511719 31.53347945213318 8.723960876464844 29.896706640720367 C 8.723960876464844 29.896706640720367 6.5606842041015625 32.060291171073914 6.5606842041015625 32.060291171073914 C 6.289115905761719 32.33154654502869 5.914207458496094 32.49966526031494 5.499931335449219 32.49966526031494 C 4.671607971191406 32.49966526031494 3.9999542236328125 31.827786564826965 3.9999542236328125 30.999414384365082 C 3.9999542236328125 30.585675418376923 4.167839050292969 30.210190415382385 4.439292907714844 29.938935041427612 C 4.439292907714844 29.938935041427612 6.451164245605469 27.927372753620148 6.451164245605469 27.927372753620148 C 4.0077362060546875 25.331568121910095 2.4999771118164062 21.8452907204628 2.4999771118164062 17.99972414970398 C 2.4999771118164062 9.991828322410583 8.991867065429688 3.4995843172073364 16.999984741210938 3.4995843172073364 C 25.008102416992188 3.4995843172073364 31.49999237060547 9.991828322410583 31.49999237060547 17.99972414970398 Z M 16.999984741210938 6.499489903450012 C 10.648628234863281 6.499489903450012 5.499931335449219 11.648075878620148 5.499931335449219 17.99972414970398 C 5.499931335449219 24.35117369890213 10.648628234863281 29.499759674072266 16.999984741210938 29.499759674072266 C 23.351226806640625 29.499759674072266 28.499923706054688 24.35117369890213 28.499923706054688 17.99972414970398 C 28.499923706054688 11.648075878620148 23.351226806640625 6.499489903450012 16.999984741210938 6.499489903450012 Z M 23.00000762939453 19.499776303768158 C 23.00000762939453 19.499776303768158 16.999984741210938 19.499776303768158 16.999984741210938 19.499776303768158 C 16.171546936035156 19.499776303768158 15.500007629394531 18.828096330165863 15.500007629394531 17.99972414970398 C 15.500007629394531 17.99972414970398 15.500007629394531 9.999479115009308 15.500007629394531 9.999479115009308 C 15.500007629394531 9.171504378318787 16.171546936035156 8.499824404716492 16.999984741210938 8.499824404716492 C 17.82842254638672 8.499824404716492 18.499961853027344 9.171504378318787 18.499961853027344 9.999479115009308 C 18.499961853027344 9.999479115009308 18.499961853027344 16.49937391281128 18.499961853027344 16.49937391281128 C 18.499961853027344 16.49937391281128 23.00000762939453 16.49937391281128 23.00000762939453 16.49937391281128 C 23.828445434570312 16.49937391281128 24.499984741210938 17.171053886413574 24.499984741210938 17.99972414970398 C 24.499984741210938 18.828096330165863 23.828445434570312 19.499776303768158 23.00000762939453 19.499776303768158 Z M 2.2872314453125 11.70530778169632 C 1.4833984375 10.684870898723602 1 9.39983582496643 1 7.999740779399872 C 1 4.685655891895294 3.6862716674804688 1.9999296069145203 6.999908447265625 1.9999296069145203 C 8.400093078613281 1.9999296069145203 9.685035705566406 2.483419954776764 10.705848693847656 3.2867531776428223 C 6.930900573730469 4.90395188331604 3.9042816162109375 7.930585563182831 2.2872314453125 11.70530778169632 Z"/></g></svg>