<svg version="1.1" xmlns="http://www.w3.org/2000/svg" xmlns:xlink="http://www.w3.org/1999/xlink" width="35" height="35"><defs/><g><path fill="rgb(149,225,211)" stroke="none" paint-order="stroke fill markers" fill-rule="evenodd" d=" M 33.06451416015625 27.88926500082016 C 33.06451416015625 27.88926500082016 18.59368896484375 33.87715286016464 18.59368896484375 33.87715286016464 C 18.41161346435547 33.95574736595154 18.21088409423828 33.999863624572754 17.999969482421875 33.999863624572754 C 17.78905487060547 33.999863624572754 17.58832550048828 33.95574736595154 17.40625 33.87715286016464 C 17.40625 33.87715286016464 2.9353103637695312 27.88926500082016 2.9353103637695312 27.88926500082016 C 2.3867950439453125 27.666398406028748 1.9999847412109375 27.128060817718506 1.9999847412109375 26.499900937080383 C 1.9999847412109375 26.499900937080383 1.9999847412109375 3.49963116645813 1.9999847412109375 3.49963116645813 C 1.9999847412109375 2.671060264110565 2.6715240478515625 1.9999764561653137 3.4999618530273438 1.9999764561653137 C 3.7032089233398438 1.9999764561653137 3.896728515625 2.040515720844269 4.07342529296875 2.113844096660614 C 4.07342529296875 2.113844096660614 4.073539733886719 2.113844096660614 4.073539733886719 2.113844096660614 C 4.073539733886719 2.113844096660614 4.0759429931640625 2.1149370670318604 4.0759429931640625 2.1149370670318604 C 4.080406188964844 2.1161293983459473 4.084869384765625 2.118514060974121 4.089332580566406 2.120401918888092 C 4.089332580566406 2.120401918888092 17.999969482421875 7.87648069858551 17.999969482421875 7.87648069858551 C 17.999969482421875 7.87648069858551 31.910606384277344 2.120401918888092 31.910606384277344 2.120401918888092 C 31.914955139160156 2.118514060974121 31.919532775878906 2.1161293983459473 31.923995971679688 2.1149370670318604 C 31.923995971679688 2.1149370670318604 31.926513671875 2.113844096660614 31.926513671875 2.113844096660614 C 31.926513671875 2.113844096660614 31.926513671875 2.113844096660614 31.926513671875 2.113844096660614 C 32.10321044921875 2.040515720844269 32.296730041503906 1.9999764561653137 32.499977111816406 1.9999764561653137 C 33.32841491699219 1.9999764561653137 33.99995422363281 2.671060264110565 33.99995422363281 3.49963116645813 C 33.99995422363281 3.49963116645813 33.99995422363281 26.499900937080383 33.99995422363281 26.499900937080383 C 33.99995422363281 27.128060817718506 33.61314392089844 27.666398406028748 33.06451416015625 27.88926500082016 Z M 16.49999237060547 10.502491056919098 C 16.49999237060547 10.502491056919098 4.99993896484375 5.743797421455383 4.99993896484375 5.743797421455383 C 4.99993896484375 5.743797421455383 4.99993896484375 25.496653497219086 4.99993896484375 25.496653497219086 C 4.99993896484375 25.496653497219086 16.49999237060547 30.255645215511322 16.49999237060547 30.255645215511322 C 16.49999237060547 30.255645215511322 16.49999237060547 10.502491056919098 16.49999237060547 10.502491056919098 Z M 31 5.743797421455383 C 31 5.743797421455383 19.49994659423828 10.502491056919098 19.49994659423828 10.502491056919098 C 19.49994659423828 10.502491056919098 19.49994659423828 30.255645215511322 19.49994659423828 30.255645215511322 C 19.49994659423828 30.255645215511322 31 25.496653497219086 31 25.496653497219086 C 31 25.496653497219086 31 5.743797421455383 31 5.743797421455383 Z M 21.879287719726562 12.633982002735138 C 21.879287719726562 12.633982002735138 27.379318237304688 10.134160041809082 27.379318237304688 10.134160041809082 C 27.379318237304688 10.134160041809082 27.379318237304688 10.134160041809082 27.379318237304688 10.134160041809082 C 27.56848907470703 10.04771602153778 27.778488159179688 9.999525964260101 27.99993133544922 9.999525964260101 C 28.828369140625 9.999525964260101 29.500022888183594 10.671205937862396 29.500022888183594 11.49967747926712 C 29.500022888183594 12.10657411813736 29.139305114746094 12.62931203842163 28.62065887451172 12.865194916725159 C 28.62065887451172 12.865194916725159 28.62065887451172 12.865194916725159 28.62065887451172 12.865194916725159 C 28.62065887451172 12.865194916725159 23.120628356933594 15.365016877651215 23.120628356933594 15.365016877651215 C 23.120628356933594 15.365016877651215 23.120628356933594 15.365016877651215 23.120628356933594 15.365016877651215 C 22.93145751953125 15.451560258865356 22.721458435058594 15.499750316143036 22.500015258789062 15.499750316143036 C 21.67157745361328 15.499750316143036 20.999923706054688 14.828070342540741 20.999923706054688 13.999499440193176 C 20.999923706054688 13.392801523208618 21.360641479492188 12.870063602924347 21.879287719726562 12.633982002735138 Z M 21.879287719726562 18.134305715560913 C 21.879287719726562 18.134305715560913 21.879287719726562 18.134305715560913 21.879287719726562 18.134305715560913 C 21.879287719726562 18.134305715560913 27.379318237304688 15.633887588977814 27.379318237304688 15.633887588977814 C 27.379318237304688 15.633887588977814 27.379318237304688 15.633887588977814 27.379318237304688 15.633887588977814 C 27.56848907470703 15.548139095306396 27.778488159179688 15.499750316143036 27.99993133544922 15.499750316143036 C 28.828369140625 15.499750316143036 29.500022888183594 16.17103284597397 29.500022888183594 16.999405026435852 C 29.500022888183594 17.606897830963135 29.139305114746094 18.129039585590363 28.62065887451172 18.36502182483673 C 28.62065887451172 18.36502182483673 23.120628356933594 20.86543995141983 23.120628356933594 20.86543995141983 C 23.120628356933594 20.86543995141983 23.120628356933594 20.864843785762787 23.120628356933594 20.864843785762787 C 22.93145751953125 20.951188445091248 22.721458435058594 20.999577224254608 22.500015258789062 20.999577224254608 C 21.67157745361328 20.999577224254608 20.999923706054688 20.327897250652313 20.999923706054688 19.499922513961792 C 20.999923706054688 18.89252907037735 21.360641479492188 18.370387315750122 21.879287719726562 18.134305715560913 Z M 21.879287719726562 23.634132623672485 C 21.879287719726562 23.634132623672485 21.879287719726562 23.634132623672485 21.879287719726562 23.634132623672485 C 21.879287719726562 23.634132623672485 27.379318237304688 21.13421130180359 27.379318237304688 21.13421130180359 C 27.379318237304688 21.13421130180359 27.379318237304688 21.13421130180359 27.379318237304688 21.13421130180359 C 27.56848907470703 21.047866642475128 27.778488159179688 20.999577224254608 27.99993133544922 20.999577224254608 C 28.828369140625 20.999577224254608 29.500022888183594 21.671356558799744 29.500022888183594 22.499828100204468 C 29.500022888183594 23.106526017189026 29.139305114746094 23.629263937473297 28.62065887451172 23.865345537662506 C 28.62065887451172 23.865345537662506 28.62065887451172 23.865345537662506 28.62065887451172 23.865345537662506 C 28.62065887451172 23.865345537662506 23.120628356933594 26.365167498588562 23.120628356933594 26.365167498588562 C 23.120628356933594 26.365167498588562 23.120628356933594 26.365167498588562 23.120628356933594 26.365167498588562 C 22.93145751953125 26.451512157917023 22.721458435058594 26.499900937080383 22.500015258789062 26.499900937080383 C 21.67157745361328 26.499900937080383 20.999923706054688 25.828121602535248 20.999923706054688 24.999650061130524 C 20.999923706054688 24.392952144145966 21.360641479492188 23.870214223861694 21.879287719726562 23.634132623672485 Z M 8.000007629394531 9.999525964260101 C 8.221450805664062 9.999525964260101 8.431449890136719 10.04771602153778 8.620620727539062 10.134160041809082 C 8.620620727539062 10.134160041809082 8.620620727539062 10.134160041809082 8.620620727539062 10.134160041809082 C 8.620620727539062 10.134160041809082 14.120651245117188 12.633982002735138 14.120651245117188 12.633982002735138 C 14.120651245117188 12.633982002735138 14.120651245117188 12.633982002735138 14.120651245117188 12.633982002735138 C 14.639297485351562 12.870063602924347 15.000015258789062 13.392801523208618 15.000015258789062 13.999499440193176 C 15.000015258789062 14.828070342540741 14.328361511230469 15.499750316143036 13.499923706054688 15.499750316143036 C 13.278480529785156 15.499750316143036 13.0684814453125 15.451560258865356 12.879310607910156 15.365016877651215 C 12.879310607910156 15.365016877651215 12.879310607910156 15.365016877651215 12.879310607910156 15.365016877651215 C 12.879310607910156 15.365016877651215 7.379280090332031 12.865194916725159 7.379280090332031 12.865194916725159 C 7.379280090332031 12.865194916725159 7.379280090332031 12.865194916725159 7.379280090332031 12.865194916725159 C 6.860633850097656 12.62931203842163 6.499916076660156 12.10657411813736 6.499916076660156 11.49967747926712 C 6.499916076660156 10.671205937862396 7.17156982421875 9.999525964260101 8.000007629394531 9.999525964260101 Z M 8.000007629394531 15.499750316143036 C 8.221450805664062 15.499750316143036 8.431449890136719 15.548139095306396 8.620620727539062 15.633887588977814 C 8.620620727539062 15.633887588977814 8.620620727539062 15.633887588977814 8.620620727539062 15.633887588977814 C 8.620620727539062 15.633887588977814 14.120651245117188 18.134305715560913 14.120651245117188 18.134305715560913 C 14.120651245117188 18.134305715560913 14.120651245117188 18.134305715560913 14.120651245117188 18.134305715560913 C 14.639297485351562 18.370387315750122 15.000015258789062 18.89252907037735 15.000015258789062 19.499922513961792 C 15.000015258789062 20.327897250652313 14.328361511230469 20.999577224254608 13.499923706054688 20.999577224254608 C 13.278480529785156 20.999577224254608 13.0684814453125 20.951188445091248 12.879310607910156 20.864843785762787 C 12.879310607910156 20.864843785762787 12.879310607910156 20.86543995141983 12.879310607910156 20.86543995141983 C 12.879310607910156 20.86543995141983 7.379280090332031 18.36502182483673 7.379280090332031 18.36502182483673 C 7.379280090332031 18.36502182483673 7.379280090332031 18.36502182483673 7.379280090332031 18.36502182483673 C 6.860633850097656 18.129039585590363 6.499916076660156 17.606897830963135 6.499916076660156 16.999405026435852 C 6.499916076660156 16.17103284597397 7.17156982421875 15.499750316143036 8.000007629394531 15.499750316143036 Z M 8.000007629394531 20.999577224254608 C 8.221450805664062 20.999577224254608 8.431449890136719 21.047866642475128 8.620620727539062 21.13421130180359 C 8.620620727539062 21.13421130180359 8.620620727539062 21.13421130180359 8.620620727539062 21.13421130180359 C 8.620620727539062 21.13421130180359 14.120651245117188 23.634132623672485 14.120651245117188 23.634132623672485 C 14.120651245117188 23.634132623672485 14.120651245117188 23.634132623672485 14.120651245117188 23.634132623672485 C 14.639297485351562 23.870214223861694 15.000015258789062 24.392952144145966 15.000015258789062 24.999650061130524 C 15.000015258789062 25.828121602535248 14.328361511230469 26.499900937080383 13.499923706054688 26.499900937080383 C 13.278480529785156 26.499900937080383 13.0684814453125 26.451512157917023 12.879310607910156 26.365167498588562 C 12.879310607910156 26.365167498588562 12.879310607910156 26.365167498588562 12.879310607910156 26.365167498588562 C 12.879310607910156 26.365167498588562 7.379280090332031 23.865345537662506 7.379280090332031 23.865345537662506 C 7.379280090332031 23.865345537662506 7.379280090332031 23.865345537662506 7.379280090332031 23.865345537662506 C 6.860633850097656 23.629263937473297 6.499916076660156 23.106526017189026 6.499916076660156 22.499828100204468 C 6.499916076660156 21.671356558799744 7.17156982421875 20.999577224254608 8.000007629394531 20.999577224254608 Z"/></g></svg>