<svg version="1.1" xmlns="http://www.w3.org/2000/svg" xmlns:xlink="http://www.w3.org/1999/xlink" width="34" height="31"><defs/><g><path fill="rgb(149,225,211)" stroke="none" paint-order="stroke fill markers" fill-rule="evenodd" d=" M 31.000038146972656 24.99950385093689 C 31.000038146972656 24.99950385093689 23.500038146972656 24.99950385093689 23.500038146972656 24.99950385093689 C 23.500038146972656 24.99950385093689 21.499954223632812 24.99950385093689 21.499954223632812 24.99950385093689 C 21.499954223632812 24.99950385093689 21.499954223632812 27.499425172805786 21.499954223632812 27.499425172805786 C 21.499954223632812 27.499425172805786 23.500038146972656 29.499759674072266 23.500038146972656 29.499759674072266 C 23.500038146972656 29.499759674072266 23.500038146972656 29.999843299388885 23.500038146972656 29.999843299388885 C 23.500038146972656 29.999843299388885 10.500007629394531 29.999843299388885 10.500007629394531 29.999843299388885 C 10.500007629394531 29.999843299388885 10.500007629394531 29.499759674072266 10.500007629394531 29.499759674072266 C 10.500007629394531 29.499759674072266 12.499977111816406 27.499425172805786 12.499977111816406 27.499425172805786 C 12.499977111816406 27.499425172805786 12.499977111816406 24.99950385093689 12.499977111816406 24.99950385093689 C 12.499977111816406 24.99950385093689 10.500007629394531 24.99950385093689 10.500007629394531 24.99950385093689 C 10.500007629394531 24.99950385093689 3.0000076293945312 24.99950385093689 3.0000076293945312 24.99950385093689 C 2.17156982421875 24.99950385093689 1.500030517578125 24.327923238277435 1.500030517578125 23.49925297498703 C 1.500030517578125 23.49925297498703 1.500030517578125 3.4995843172073364 1.500030517578125 3.4995843172073364 C 1.500030517578125 2.6711127758026123 2.17156982421875 1.9999296069145203 3.0000076293945312 1.9999296069145203 C 3.0000076293945312 1.9999296069145203 31.000038146972656 1.9999296069145203 31.000038146972656 1.9999296069145203 C 31.828475952148438 1.9999296069145203 32.50001525878906 2.6711127758026123 32.50001525878906 3.4995843172073364 C 32.50001525878906 3.4995843172073364 32.50001525878906 23.49925297498703 32.50001525878906 23.49925297498703 C 32.50001525878906 24.327923238277435 31.828475952148438 24.99950385093689 31.000038146972656 24.99950385093689 Z M 30.500045776367188 3.9996679425239563 C 30.500045776367188 3.9996679425239563 3.5 3.9996679425239563 3.5 3.9996679425239563 C 3.5 3.9996679425239563 3.5 20.999431014060974 3.5 20.999431014060974 C 3.5 20.999431014060974 30.500045776367188 20.999431014060974 30.500045776367188 20.999431014060974 C 30.500045776367188 20.999431014060974 30.500045776367188 3.9996679425239563 30.500045776367188 3.9996679425239563 Z M 13.999954223632812 10.999646365642548 C 14.414230346679688 10.999646365642548 14.789138793945312 11.167765080928802 15.060592651367188 11.438921093940735 C 15.060592651367188 11.438921093940735 15.060592651367188 11.438921093940735 15.060592651367188 11.438921093940735 C 15.060592651367188 11.438921093940735 15.999923706054688 12.378378808498383 15.999923706054688 12.378378808498383 C 15.999923706054688 12.378378808498383 18.93933868408203 9.439182758331299 18.93933868408203 9.439182758331299 C 18.93933868408203 9.439182758331299 18.93933868408203 9.439182758331299 18.93933868408203 9.439182758331299 C 19.210792541503906 9.167430579662323 19.58570098876953 8.999908030033112 19.999977111816406 8.999908030033112 C 20.828414916992188 8.999908030033112 21.499954223632812 9.670991837978363 21.499954223632812 10.499562740325928 C 21.499954223632812 10.91389787197113 21.332069396972656 11.288786709308624 21.06061553955078 11.56043952703476 C 21.06061553955078 11.56043952703476 21.06061553955078 11.56043952703476 21.06061553955078 11.56043952703476 C 21.06061553955078 11.56043952703476 17.06067657470703 15.560611724853516 17.06067657470703 15.560611724853516 C 17.06067657470703 15.560611724853516 17.06067657470703 15.560611724853516 17.06067657470703 15.560611724853516 C 16.789222717285156 15.831867098808289 16.414199829101562 15.999985814094543 15.999923706054688 15.999985814094543 C 15.585762023925781 15.999985814094543 15.210739135742188 15.831867098808289 14.939285278320312 15.560611724853516 C 14.939285278320312 15.560611724853516 14.939285278320312 15.560611724853516 14.939285278320312 15.560611724853516 C 14.939285278320312 15.560611724853516 12.939315795898438 13.560177862644196 12.939315795898438 13.560177862644196 C 12.939315795898438 13.560177862644196 12.939315795898438 13.560177862644196 12.939315795898438 13.560177862644196 C 12.667861938476562 13.289121210575104 12.499977111816406 12.913437485694885 12.499977111816406 12.499897241592407 C 12.499977111816406 11.671326339244843 13.171630859375 10.999646365642548 13.999954223632812 10.999646365642548 Z"/></g></svg>