<svg version="1.1" xmlns="http://www.w3.org/2000/svg" xmlns:xlink="http://www.w3.org/1999/xlink" width="15" height="29"><defs/><g><path fill="rgb(243,129,129)" stroke="none" paint-order="stroke fill markers" fill-rule="evenodd" d=" M 13.08929443359375 2.198766589164734 C 13.08929443359375 3.6753695607185364 13.08929443359375 6.319861054420471 13.08929443359375 6.319861054420471 C 13.08929443359375 6.319861054420471 10.051689147949219 6.017207622528076 9.291000366210938 7.181221067905426 C 8.8751220703125 7.817230463027954 9.121971130371094 9.680446863174438 9.085121154785156 11.018540680408478 C 10.411148071289062 11.018540680408478 11.788444519042969 11.018540680408478 13.114356994628906 11.018540680408478 C 12.773551940917969 12.58307808637619 12.529678344726562 13.642961263656616 12.279281616210938 14.997151553630829 C 11.131782531738281 14.997151553630829 9.062576293945312 14.997151553630829 9.062576293945312 14.997151553630829 C 9.062576293945312 14.997151553630829 9.062576293945312 27.800802648067474 9.062576293945312 27.800802648067474 C 9.062576293945312 27.800802648067474 5.265769958496094 27.800802648067474 3.4808349609375 27.800802648067474 C 3.4819793701171875 23.853887915611267 3.4800338745117188 19.248706936836243 3.4808349609375 15.04732882976532 C 2.6137161254882812 15.04732882976532 1.9726181030273438 15.04732882976532 1.1057281494140625 15.04732882976532 C 1.1057281494140625 13.57132202386856 1.1057281494140625 12.495541095733643 1.1057281494140625 11.018540680408478 C 1.9469833374023438 11.018540680408478 2.6129150390625 11.018540680408478 3.4546279907226562 11.018540680408478 C 3.5750198364257812 8.072985529899597 3.620452880859375 5.154655277729034 5.083580017089844 3.6687123775482178 C 6.72821044921875 1.99805748462677 8.296623229980469 2.198766589164734 13.08929443359375 2.198766589164734 Z"/></g></svg>