<svg version="1.1" xmlns="http://www.w3.org/2000/svg" xmlns:xlink="http://www.w3.org/1999/xlink" width="35" height="33"><defs/><g><path fill="rgb(149,225,211)" stroke="none" paint-order="stroke fill markers" fill-rule="evenodd" d=" M 33.99993133544922 17.49965590238571 C 33.99993133544922 18.328326165676117 33.328392028808594 18.999310612678528 32.49995422363281 18.999310612678528 C 32.10478973388672 18.999310612678528 31.748077392578125 18.843810737133026 31.48017120361328 18.594116687774658 C 31.48017120361328 18.594116687774658 31.47650909423828 18.59759432077408 31.47650909423828 18.59759432077408 C 31.47650909423828 18.59759432077408 18.038169860839844 5.159126162528992 18.038169860839844 5.159126162528992 C 18.038169860839844 5.159126162528992 18.038284301757812 5.158529996871948 18.038284301757812 5.158529996871948 C 18.038284301757812 5.158529996871948 17.99994659423828 5.122263252735138 17.99994659423828 5.122263252735138 C 17.99994659423828 5.122263252735138 17.99994659423828 5.1216670870780945 17.99994659423828 5.1216670870780945 C 17.99994659423828 5.1216670870780945 4.553825378417969 18.56848156452179 4.553825378417969 18.56848156452179 C 4.553825378417969 18.56848156452179 4.553138732910156 18.567885398864746 4.553138732910156 18.567885398864746 C 4.282257080078125 18.834868252277374 3.9104385375976562 18.999310612678528 3.5000534057617188 18.999310612678528 C 2.6715011596679688 18.999310612678528 1.9999618530273438 18.328326165676117 1.9999618530273438 17.49965590238571 C 1.9999618530273438 17.074689149856567 2.177001953125 16.691453993320465 2.4608154296875 16.418608844280243 C 2.4608154296875 16.418608844280243 16.9188232421875 1.9601012468338013 16.9188232421875 1.9601012468338013 C 17.19176483154297 1.6765251159667969 17.575027465820312 1.4994639158248901 17.99994659423828 1.4994639158248901 C 17.99994659423828 1.4994639158248901 17.99994659423828 1.4994639158248901 17.99994659423828 1.4994639158248901 C 17.99994659423828 1.4994639158248901 17.99994659423828 1.4994639158248901 17.99994659423828 1.4994639158248901 C 18.00017547607422 1.4994639158248901 18.000289916992188 1.4994639158248901 18.000518798828125 1.4994639158248901 C 18.027069091796875 1.4994639158248901 18.053390502929688 1.5000600814819336 18.07959747314453 1.501848578453064 C 18.083717346191406 1.501848578453064 18.08795166015625 1.5024447441101074 18.092071533203125 1.5024447441101074 C 18.114730834960938 1.5041338801383972 18.137161254882812 1.5059223771095276 18.159591674804688 1.508406400680542 C 18.160964965820312 1.508406400680542 18.162452697753906 1.508406400680542 18.1639404296875 1.5090025663375854 C 18.53106689453125 1.5488463044166565 18.858139038085938 1.7212375402450562 19.09697723388672 1.9768932461738586 C 19.09697723388672 1.9768932461738586 19.0977783203125 1.9762970805168152 19.0977783203125 1.9762970805168152 C 19.0977783203125 1.9762970805168152 24.999954223632812 7.878237724304199 24.999954223632812 7.878237724304199 C 24.999954223632812 7.878237724304199 24.999954223632812 6.499704003334045 24.999954223632812 6.499704003334045 C 24.999954223632812 5.671133100986481 25.671493530273438 4.999453127384186 26.49993133544922 4.999453127384186 C 27.328369140625 4.999453127384186 27.999908447265625 5.671133100986481 27.999908447265625 6.499704003334045 C 27.999908447265625 6.499704003334045 27.999908447265625 10.878143310546875 27.999908447265625 10.878143310546875 C 27.999908447265625 10.878143310546875 33.59778594970703 16.476238191127777 33.59778594970703 16.476238191127777 C 33.59778594970703 16.476238191127777 33.59435272216797 16.47991454601288 33.59435272216797 16.47991454601288 C 33.84406280517578 16.74749356508255 33.99993133544922 17.10459679365158 33.99993133544922 17.49965590238571 Z M 30.999977111816406 19.999577224254608 C 30.999977111816406 19.999577224254608 30.999977111816406 24.499733686447144 30.999977111816406 24.499733686447144 C 30.999977111816406 24.499733686447144 30.999977111816406 26.49947202205658 30.999977111816406 26.49947202205658 C 30.999977111816406 26.49947202205658 30.999977111816406 30.499544858932495 30.999977111816406 30.499544858932495 C 30.999977111816406 31.32801640033722 30.32843780517578 31.999795734882355 29.5 31.999795734882355 C 29.5 31.999795734882355 26.49993133544922 31.999795734882355 26.49993133544922 31.999795734882355 C 26.49993133544922 31.999795734882355 26.49993133544922 19.999577224254608 26.49993133544922 19.999577224254608 C 26.49993133544922 19.999577224254608 20.500022888183594 19.999577224254608 20.500022888183594 19.999577224254608 C 20.500022888183594 19.999577224254608 20.500022888183594 31.999795734882355 20.500022888183594 31.999795734882355 C 20.500022888183594 31.999795734882355 6.500007629394531 31.999795734882355 6.500007629394531 31.999795734882355 C 5.67156982421875 31.999795734882355 5.000030517578125 31.32801640033722 5.000030517578125 30.499544858932495 C 5.000030517578125 30.499544858932495 5.000030517578125 26.49947202205658 5.000030517578125 26.49947202205658 C 5.000030517578125 26.49947202205658 5.000030517578125 24.499733686447144 5.000030517578125 24.499733686447144 C 5.000030517578125 24.499733686447144 5.000030517578125 19.999577224254608 5.000030517578125 19.999577224254608 C 5.000030517578125 19.999577224254608 17.99994659423828 6.999787628650665 17.99994659423828 6.999787628650665 C 17.99994659423828 6.999787628650665 30.999977111816406 19.999577224254608 30.999977111816406 19.999577224254608 Z M 15.499984741210938 19.999577224254608 C 15.499984741210938 19.999577224254608 9.499961853027344 19.999577224254608 9.499961853027344 19.999577224254608 C 9.499961853027344 19.999577224254608 9.499961853027344 25.999984562397003 9.499961853027344 25.999984562397003 C 9.499961853027344 25.999984562397003 15.499984741210938 25.999984562397003 15.499984741210938 25.999984562397003 C 15.499984741210938 25.999984562397003 15.499984741210938 19.999577224254608 15.499984741210938 19.999577224254608 Z"/></g></svg>