<svg version="1.1" xmlns="http://www.w3.org/2000/svg" xmlns:xlink="http://www.w3.org/1999/xlink" width="36" height="35"><defs/><g><path fill="rgb(149,225,211)" stroke="none" paint-order="stroke fill markers" fill-rule="evenodd" d=" M 32.500030517578125 33.999863624572754 C 32.500030517578125 33.999863624572754 3.5000152587890625 33.999863624572754 3.5000152587890625 33.999863624572754 C 2.6714630126953125 33.999863624572754 1.9999237060546875 33.32818365097046 1.9999237060546875 32.499712109565735 C 1.9999237060546875 32.499712109565735 1.9999237060546875 3.49963116645813 1.9999237060546875 3.49963116645813 C 1.9999237060546875 2.671060264110565 2.6714630126953125 1.9999764561653137 3.5000152587890625 1.9999764561653137 C 3.5000152587890625 1.9999764561653137 32.500030517578125 1.9999764561653137 32.500030517578125 1.9999764561653137 C 33.328468322753906 1.9999764561653137 34.00000762939453 2.671060264110565 34.00000762939453 3.49963116645813 C 34.00000762939453 3.49963116645813 34.00000762939453 32.499712109565735 34.00000762939453 32.499712109565735 C 34.00000762939453 33.32818365097046 33.328468322753906 33.999863624572754 32.500030517578125 33.999863624572754 Z M 31.00005340576172 4.9998820424079895 C 31.00005340576172 4.9998820424079895 4.999992370605469 4.9998820424079895 4.999992370605469 4.9998820424079895 C 4.999992370605469 4.9998820424079895 4.999992370605469 30.999461233615875 4.999992370605469 30.999461233615875 C 4.999992370605469 30.999461233615875 31.00005340576172 30.999461233615875 31.00005340576172 30.999461233615875 C 31.00005340576172 30.999461233615875 31.00005340576172 4.9998820424079895 31.00005340576172 4.9998820424079895 Z M 8.500053405761719 6.499536752700806 C 8.500053405761719 6.499536752700806 13.999855041503906 6.499536752700806 13.999855041503906 6.499536752700806 C 13.999855041503906 6.499536752700806 13.999969482421875 6.499536752700806 13.999969482421875 6.499536752700806 C 14.828407287597656 6.499536752700806 15.499946594238281 7.171216726303101 15.499946594238281 7.999787628650665 C 15.499946594238281 8.82825917005539 14.828407287597656 9.499442338943481 13.999969482421875 9.499442338943481 C 13.999969482421875 9.499442338943481 13.999969482421875 9.499442338943481 13.999969482421875 9.499442338943481 C 13.999969482421875 9.499442338943481 9.500038146972656 9.499442338943481 9.500038146972656 9.499442338943481 C 9.500038146972656 9.499442338943481 9.500038146972656 13.999499440193176 9.500038146972656 13.999499440193176 C 9.500038146972656 13.999499440193176 9.500038146972656 13.999499440193176 9.500038146972656 13.999499440193176 C 9.500038146972656 14.828070342540741 8.828384399414062 15.499750316143036 7.999946594238281 15.499750316143036 C 7.171623229980469 15.499750316143036 6.499969482421875 14.828070342540741 6.499969482421875 13.999499440193176 C 6.499969482421875 13.999499440193176 6.499969482421875 13.999499440193176 6.499969482421875 13.999499440193176 C 6.499969482421875 13.999499440193176 6.499969482421875 8.499871253967285 6.499969482421875 8.499871253967285 C 6.499969482421875 8.499871253967285 6.499969482421875 8.499871253967285 6.499969482421875 8.499871253967285 C 6.499969482421875 8.499871253967285 6.499969482421875 6.499536752700806 6.499969482421875 6.499536752700806 C 6.499969482421875 6.499536752700806 8.500053405761719 6.499536752700806 8.500053405761719 6.499536752700806 C 8.500053405761719 6.499536752700806 8.500053405761719 6.499536752700806 8.500053405761719 6.499536752700806 Z M 6.499969482421875 21.999744474887848 C 6.499969482421875 21.999744474887848 6.499969482421875 21.999744474887848 6.499969482421875 21.999744474887848 C 6.499969482421875 21.171272933483124 7.171623229980469 20.49949359893799 7.999946594238281 20.49949359893799 C 8.828384399414062 20.49949359893799 9.500038146972656 21.171272933483124 9.500038146972656 21.999744474887848 C 9.500038146972656 21.999744474887848 9.500038146972656 21.999744474887848 9.500038146972656 21.999744474887848 C 9.500038146972656 21.999744474887848 9.500038146972656 26.49930477142334 9.500038146972656 26.49930477142334 C 9.500038146972656 26.49930477142334 13.999969482421875 26.49930477142334 13.999969482421875 26.49930477142334 C 13.999969482421875 26.49930477142334 13.999969482421875 26.499900937080383 13.999969482421875 26.499900937080383 C 14.828407287597656 26.499900937080383 15.499946594238281 27.170984745025635 15.499946594238281 27.9995556473732 C 15.499946594238281 28.828027188777924 14.828407287597656 29.49980652332306 13.999969482421875 29.49980652332306 C 13.999969482421875 29.49980652332306 13.999855041503906 29.49980652332306 13.999855041503906 29.49980652332306 C 13.999855041503906 29.49980652332306 8.500053405761719 29.49980652332306 8.500053405761719 29.49980652332306 C 8.500053405761719 29.49980652332306 8.500053405761719 29.49980652332306 8.500053405761719 29.49980652332306 C 8.500053405761719 29.49980652332306 6.499969482421875 29.49980652332306 6.499969482421875 29.49980652332306 C 6.499969482421875 29.49980652332306 6.499969482421875 27.49947202205658 6.499969482421875 27.49947202205658 C 6.499969482421875 27.49947202205658 6.499969482421875 27.49947202205658 6.499969482421875 27.49947202205658 C 6.499969482421875 27.49947202205658 6.499969482421875 21.999744474887848 6.499969482421875 21.999744474887848 Z M 21.999961853027344 6.499536752700806 C 21.999961853027344 6.499536752700806 22.000076293945312 6.499536752700806 22.000076293945312 6.499536752700806 C 22.000076293945312 6.499536752700806 27.49999237060547 6.499536752700806 27.49999237060547 6.499536752700806 C 27.49999237060547 6.499536752700806 27.49999237060547 6.499536752700806 27.49999237060547 6.499536752700806 C 27.49999237060547 6.499536752700806 29.499961853027344 6.499536752700806 29.499961853027344 6.499536752700806 C 29.499961853027344 6.499536752700806 29.499961853027344 8.499871253967285 29.499961853027344 8.499871253967285 C 29.499961853027344 8.499871253967285 29.499961853027344 8.499871253967285 29.499961853027344 8.499871253967285 C 29.499961853027344 8.499871253967285 29.499961853027344 13.999499440193176 29.499961853027344 13.999499440193176 C 29.499961853027344 13.999499440193176 29.499961853027344 13.999499440193176 29.499961853027344 13.999499440193176 C 29.499961853027344 14.828070342540741 28.82830810546875 15.499750316143036 27.999984741210938 15.499750316143036 C 27.171546936035156 15.499750316143036 26.499893188476562 14.828070342540741 26.499893188476562 13.999499440193176 C 26.499893188476562 13.999499440193176 26.499893188476562 13.999499440193176 26.499893188476562 13.999499440193176 C 26.499893188476562 13.999499440193176 26.499893188476562 9.499442338943481 26.499893188476562 9.499442338943481 C 26.499893188476562 9.499442338943481 21.999961853027344 9.499442338943481 21.999961853027344 9.499442338943481 C 21.999961853027344 9.499442338943481 21.999961853027344 9.499442338943481 21.999961853027344 9.499442338943481 C 21.171524047851562 9.499442338943481 20.499984741210938 8.82825917005539 20.499984741210938 7.999787628650665 C 20.499984741210938 7.171216726303101 21.171524047851562 6.499536752700806 21.999961853027344 6.499536752700806 Z M 21.999961853027344 26.499900937080383 C 21.999961853027344 26.499900937080383 21.999961853027344 26.49930477142334 21.999961853027344 26.49930477142334 C 21.999961853027344 26.49930477142334 26.499893188476562 26.49930477142334 26.499893188476562 26.49930477142334 C 26.499893188476562 26.49930477142334 26.499893188476562 21.999744474887848 26.499893188476562 21.999744474887848 C 26.499893188476562 21.999744474887848 26.499893188476562 21.999744474887848 26.499893188476562 21.999744474887848 C 26.499893188476562 21.171272933483124 27.171546936035156 20.49949359893799 27.999984741210938 20.49949359893799 C 28.82830810546875 20.49949359893799 29.499961853027344 21.171272933483124 29.499961853027344 21.999744474887848 C 29.499961853027344 21.999744474887848 29.499961853027344 21.999744474887848 29.499961853027344 21.999744474887848 C 29.499961853027344 21.999744474887848 29.499961853027344 27.49947202205658 29.499961853027344 27.49947202205658 C 29.499961853027344 27.49947202205658 29.499961853027344 27.49947202205658 29.499961853027344 27.49947202205658 C 29.499961853027344 27.49947202205658 29.499961853027344 29.49980652332306 29.499961853027344 29.49980652332306 C 29.499961853027344 29.49980652332306 27.49999237060547 29.49980652332306 27.49999237060547 29.49980652332306 C 27.49999237060547 29.49980652332306 27.49999237060547 29.49980652332306 27.49999237060547 29.49980652332306 C 27.49999237060547 29.49980652332306 22.000076293945312 29.49980652332306 22.000076293945312 29.49980652332306 C 22.000076293945312 29.49980652332306 21.999961853027344 29.49980652332306 21.999961853027344 29.49980652332306 C 21.171524047851562 29.49980652332306 20.499984741210938 28.828027188777924 20.499984741210938 27.9995556473732 C 20.499984741210938 27.170984745025635 21.171524047851562 26.499900937080383 21.999961853027344 26.499900937080383 Z"/></g></svg>