<svg version="1.1" xmlns="http://www.w3.org/2000/svg" xmlns:xlink="http://www.w3.org/1999/xlink" width="28" height="28"><defs/><g><path fill="rgb(243,129,129)" stroke="none" paint-order="stroke fill markers" fill-rule="evenodd" d=" M 23.69989013671875 26.799610316753387 C 23.69989013671875 26.799610316753387 4.499908447265625 26.799610316753387 4.499908447265625 26.799610316753387 C 2.7327117919921875 26.799610316753387 1.2999114990234375 25.36672616004944 1.2999114990234375 23.59939306974411 C 1.2999114990234375 23.59939306974411 1.2999114990234375 4.399580001831055 1.2999114990234375 4.399580001831055 C 1.2999114990234375 2.632346272468567 2.7327117919921875 1.1993627548217773 4.499908447265625 1.1993627548217773 C 4.499908447265625 1.1993627548217773 23.69989013671875 1.1993627548217773 23.69989013671875 1.1993627548217773 C 25.467315673828125 1.1993627548217773 26.900001525878906 2.632346272468567 26.900001525878906 4.399580001831055 C 26.900001525878906 4.399580001831055 26.900001525878906 23.59939306974411 26.900001525878906 23.59939306974411 C 26.900001525878906 25.36672616004944 25.467315673828125 26.799610316753387 23.69989013671875 26.799610316753387 Z M 14.100013732910156 9.039239227771759 C 12.104393005371094 9.039239227771759 10.388809204101562 10.22064083814621 9.6016845703125 11.9193155169487 C 9.6016845703125 11.9193155169487 9.597221374511719 11.9193155169487 9.597221374511719 11.9193155169487 C 9.588981628417969 11.937299847602844 9.5833740234375 11.956377148628235 9.575363159179688 11.974162757396698 C 9.528213500976562 12.079087913036346 9.486557006835938 12.186993896961212 9.446731567382812 12.29539668560028 C 9.427619934082031 12.347958624362946 9.407135009765625 12.398533344268799 9.389739990234375 12.450995922088623 C 9.353233337402344 12.56247889995575 9.323249816894531 12.67634654045105 9.294525146484375 12.790810346603394 C 9.281021118164062 12.844465255737305 9.264999389648438 12.896828472614288 9.253211975097656 12.951079547405243 C 9.22723388671875 13.072101175785065 9.209037780761719 13.194811940193176 9.191986083984375 13.318814396858215 C 9.18511962890625 13.368991672992706 9.174591064453125 13.41777789592743 9.169212341308594 13.468551337718964 C 9.150558471679688 13.643128514289856 9.139915466308594 13.820189714431763 9.139915466308594 13.999635577201843 C 9.139915466308594 16.738917410373688 11.360641479492188 18.959237039089203 14.100013732910156 18.959237039089203 C 16.839271545410156 18.959237039089203 19.05999755859375 16.738917410373688 19.05999755859375 13.999635577201843 C 19.05999755859375 13.820189714431763 19.049354553222656 13.643128514289856 19.03070068359375 13.468551337718964 C 19.02532196044922 13.41777789592743 19.014793395996094 13.368991672992706 19.00792694091797 13.318814396858215 C 18.990875244140625 13.194811940193176 18.972679138183594 13.072101175785065 18.946701049804688 12.951079547405243 C 18.934913635253906 12.896828472614288 18.91889190673828 12.844465255737305 18.90538787841797 12.790810346603394 C 18.876663208007812 12.67634654045105 18.8466796875 12.56247889995575 18.81017303466797 12.450995922088623 C 18.79277801513672 12.398533344268799 18.772293090820312 12.347958624362946 18.75318145751953 12.29539668560028 C 18.713356018066406 12.186993896961212 18.67169952392578 12.079087913036346 18.624549865722656 11.974162757396698 C 18.616539001464844 11.956377148628235 18.610931396484375 11.937299847602844 18.602691650390625 11.9193155169487 C 18.602691650390625 11.9193155169487 18.598228454589844 11.9193155169487 18.598228454589844 11.9193155169487 C 17.81110382080078 10.22064083814621 16.09552001953125 9.039239227771759 14.100013732910156 9.039239227771759 Z M 24.019981384277344 5.35930734872818 C 24.019981384277344 4.652453601360321 23.446861267089844 4.079538404941559 22.739959716796875 4.079538404941559 C 22.739959716796875 4.079538404941559 20.179916381835938 4.079538404941559 20.179916381835938 4.079538404941559 C 19.47301483154297 4.079538404941559 18.900009155273438 4.652453601360321 18.900009155273438 5.35930734872818 C 18.900009155273438 5.35930734872818 18.900009155273438 7.919838845729828 18.900009155273438 7.919838845729828 C 18.900009155273438 8.626891314983368 19.47301483154297 9.199607789516449 20.179916381835938 9.199607789516449 C 20.179916381835938 9.199607789516449 22.739959716796875 9.199607789516449 22.739959716796875 9.199607789516449 C 23.446861267089844 9.199607789516449 24.019981384277344 8.626891314983368 24.019981384277344 7.919838845729828 C 24.019981384277344 7.919838845729828 24.019981384277344 5.35930734872818 24.019981384277344 5.35930734872818 Z M 24.019981384277344 11.9193155169487 C 24.019981384277344 11.9193155169487 21.660324096679688 11.9193155169487 21.660324096679688 11.9193155169487 C 21.84239959716797 12.582053005695343 21.940017700195312 13.279566824436188 21.940017700195312 13.999635577201843 C 21.940017700195312 18.329884827136993 18.429885864257812 21.839412689208984 14.100013732910156 21.839412689208984 C 9.770027160644531 21.839412689208984 6.260009765625 18.329884827136993 6.260009765625 13.999635577201843 C 6.260009765625 13.279566824436188 6.357627868652344 12.582053005695343 6.539588928222656 11.9193155169487 C 6.539588928222656 11.9193155169487 4.179931640625 11.9193155169487 4.179931640625 11.9193155169487 C 4.179931640625 11.9193155169487 4.179931640625 22.639268279075623 4.179931640625 22.639268279075623 C 4.179931640625 23.346718192100525 4.7530517578125 23.919633388519287 5.459953308105469 23.919633388519287 C 5.459953308105469 23.919633388519287 22.739959716796875 23.919633388519287 22.739959716796875 23.919633388519287 C 23.446861267089844 23.919633388519287 24.019981384277344 23.346718192100525 24.019981384277344 22.639268279075623 C 24.019981384277344 22.639268279075623 24.019981384277344 11.9193155169487 24.019981384277344 11.9193155169487 Z"/></g></svg>