<svg version="1.1" xmlns="http://www.w3.org/2000/svg" xmlns:xlink="http://www.w3.org/1999/xlink" width="35" height="35"><defs/><g><path fill="rgb(149,225,211)" stroke="none" paint-order="stroke fill markers" fill-rule="evenodd" d=" M 31.49993896484375 33.99974888563156 C 31.49993896484375 33.99974888563156 2.4999237060546875 33.99974888563156 2.4999237060546875 33.99974888563156 C 1.671600341796875 33.99974888563156 1.00006103515625 33.327870190143585 1.00006103515625 32.4994980096817 C 1.00006103515625 32.4994980096817 1.00006103515625 3.4994170665740967 1.00006103515625 3.4994170665740967 C 1.00006103515625 2.671541690826416 1.671600341796875 1.9997623562812805 2.4999237060546875 1.9997623562812805 C 2.4999237060546875 1.9997623562812805 31.49993896484375 1.9997623562812805 31.49993896484375 1.9997623562812805 C 32.32837677001953 1.9997623562812805 33.000030517578125 2.671541690826416 33.000030517578125 3.4994170665740967 C 33.000030517578125 3.4994170665740967 33.000030517578125 32.4994980096817 33.000030517578125 32.4994980096817 C 33.000030517578125 33.327870190143585 32.32837677001953 33.99974888563156 31.49993896484375 33.99974888563156 Z M 29.999961853027344 4.999667942523956 C 29.999961853027344 4.999667942523956 4.0000152587890625 4.999667942523956 4.0000152587890625 4.999667942523956 C 4.0000152587890625 4.999667942523956 4.0000152587890625 30.999843299388885 4.0000152587890625 30.999843299388885 C 4.0000152587890625 30.999843299388885 29.999961853027344 30.999843299388885 29.999961853027344 30.999843299388885 C 29.999961853027344 30.999843299388885 29.999961853027344 4.999667942523956 29.999961853027344 4.999667942523956 Z M 6.215362548828125 18.238420605659485 C 6.215362548828125 18.238420605659485 6.2146759033203125 18.237228274345398 6.2146759033203125 18.237228274345398 C 6.2146759033203125 18.237228274345398 10.214614868164062 15.737406313419342 10.214614868164062 15.737406313419342 C 10.214614868164062 15.737406313419342 10.215415954589844 15.738598644733429 10.215415954589844 15.738598644733429 C 10.4437255859375 15.598002910614014 10.712318420410156 15.516924381256104 10.999908447265625 15.516924381256104 C 11.311302185058594 15.516924381256104 11.600379943847656 15.611714720726013 11.840133666992188 15.774368584156036 C 11.840133666992188 15.774368584156036 11.845970153808594 15.765525460243225 11.845970153808594 15.765525460243225 C 11.845970153808594 15.765525460243225 18.47667694091797 20.185795724391937 18.47667694091797 20.185795724391937 C 18.47667694091797 20.185795724391937 26.11492156982422 14.794470965862274 26.11492156982422 14.794470965862274 C 26.36302947998047 14.61273980140686 26.668930053710938 14.505429983139038 27.00000762939453 14.505429983139038 C 27.828330993652344 14.505429983139038 28.499984741210938 15.17661315202713 28.499984741210938 16.005084693431854 C 28.499984741210938 16.505168318748474 28.254966735839844 16.948020040988922 27.878456115722656 17.220467746257782 C 27.878456115722656 17.220467746257782 27.87891387939453 17.221063911914825 27.87891387939453 17.221063911914825 C 27.87891387939453 17.221063911914825 19.378929138183594 23.22137188911438 19.378929138183594 23.22137188911438 C 19.378929138183594 23.22137188911438 19.37847137451172 23.220775723457336 19.37847137451172 23.220775723457336 C 19.131507873535156 23.399625420570374 18.828125 23.505146741867065 18.500022888183594 23.505146741867065 C 18.179359436035156 23.505146741867065 17.88238525390625 23.40439474582672 17.638626098632812 23.232699036598206 C 17.638626098632812 23.232699036598206 10.982398986816406 18.795139968395233 10.982398986816406 18.795139968395233 C 10.982398986816406 18.795139968395233 7.846832275390625 20.754935204982758 7.846832275390625 20.754935204982758 C 7.6058197021484375 20.920172452926636 7.3142242431640625 21.01724809408188 6.999969482421875 21.01724809408188 C 6.171531677246094 21.01724809408188 5.499992370605469 20.345468759536743 5.499992370605469 19.51699721813202 C 5.499992370605469 18.976374328136444 5.786323547363281 18.502422630786896 6.215362548828125 18.238420605659485 Z"/></g></svg>