<svg version="1.1" xmlns="http://www.w3.org/2000/svg" xmlns:xlink="http://www.w3.org/1999/xlink" width="23" height="29"><defs/><g><path fill="rgb(243,129,129)" stroke="none" paint-order="stroke fill markers" fill-rule="evenodd" d=" M 10.050758361816406 17.853647828102112 C 9.841560363769531 18.686888694763184 9.631217956542969 19.560072660446167 9.412864685058594 20.41417932510376 C 9.197601318359375 21.25576651096344 9.008430480957031 22.110071897506714 8.695320129394531 22.88369619846344 C 8.176216125488281 24.16525363922119 7.516807556152344 25.40309226512909 6.6517486572265625 26.4051473736763 C 6.077140808105469 27.072058022022247 6.199363708496094 26.805671334266663 6.026214599609375 26.769901394844055 C 5.894264221191406 26.742378413677216 5.882591247558594 26.613109827041626 5.856727600097656 26.425317645072937 C 5.715965270996094 25.40676862001419 5.811866760253906 24.230136334896088 5.8643951416015625 23.08569699525833 C 5.9239044189453125 21.782081425189972 6.197990417480469 20.697954177856445 6.452507019042969 19.614919900894165 C 6.937049865722656 17.55139183998108 7.398933410644531 15.527806878089905 7.8877105712890625 13.451163172721863 C 7.920440673828125 13.312952101230621 8.00787353515625 13.084620654582977 7.9776611328125 13.005926787853241 C 7.756103515625 12.428937792778015 7.612251281738281 11.911068558692932 7.549079895019531 11.30536425113678 C 7.4761810302734375 10.609837651252747 7.532142639160156 9.961308777332306 7.688468933105469 9.362261652946472 C 7.964500427246094 8.304365694522858 8.601249694824219 7.36669647693634 9.582351684570312 7.024000585079193 C 10.2060546875 6.807592451572418 10.89727783203125 6.905462980270386 11.316818237304688 7.156349360942841 C 11.749176025390625 7.4144890904426575 12.045578002929688 7.822763204574585 12.184051513671875 8.401540696620941 C 12.331565856933594 9.017181098461151 12.222846984863281 9.752650797367096 12.104171752929688 10.293373048305511 C 11.837066650390625 11.511637568473816 11.486305236816406 12.426553130149841 11.167243957519531 13.602688610553741 C 11.009086608886719 14.186136066913605 10.830215454101562 14.785183191299438 10.97784423828125 15.414535403251648 C 11.113685607910156 15.99271672964096 11.414665222167969 16.39095538854599 11.825279235839844 16.68953502178192 C 12.250656127929688 16.99954116344452 12.754539489746094 17.169249653816223 13.449882507324219 17.145005583763123 C 14.677604675292969 17.102081656455994 15.530990600585938 16.31693148612976 16.101478576660156 15.576692461967468 C 17.013572692871094 14.3923100233078 17.566322326660156 12.793095648288727 17.775978088378906 10.890631675720215 C 17.84349822998047 10.277276575565338 17.893051147460938 9.57221132516861 17.845672607421875 8.876486003398895 C 17.758468627929688 7.592742621898651 17.356666564941406 6.560382425785065 16.719345092773438 5.7598313093185425 C 16.11292266845703 4.9974347949028015 15.253013610839844 4.390736877918243 14.207481384277344 4.049233317375183 C 13.170417785644531 3.7106112241744995 11.734756469726562 3.597935914993286 10.459541320800781 3.8161325454711914 C 8.1424560546875 4.213079512119293 6.507896423339844 5.5303075313568115 5.5453338623046875 7.348910868167877 C 5.040992736816406 8.300788700580597 4.7080841064453125 9.39624309539795 4.7080841064453125 10.75887906551361 C 4.7080841064453125 11.809720396995544 4.9674072265625 12.623883962631226 5.3860321044921875 13.258701026439667 C 5.518669128417969 13.460105657577515 5.714134216308594 13.625939071178436 5.844482421875 13.85595965385437 C 6.029075622558594 14.18186354637146 5.815986633300781 14.667142391204834 5.724662780761719 15.01997309923172 C 5.6149139404296875 15.445039212703705 5.603240966796875 16.03206366300583 5.1067962646484375 16.042198479175568 C 4.9014892578125 16.04587483406067 4.643196105957031 15.895541727542877 4.468788146972656 15.799062252044678 C 3.164276123046875 15.077801167964935 2.3715438842773438 13.765938639640808 2.0466461181640625 12.064779937267303 C 1.8492355346679688 11.03122740983963 1.849578857421875 9.825482368469238 2.0466461181640625 8.826507449150085 C 2.2370758056640625 7.860321640968323 2.5914993286132812 6.968656539916992 2.9836883544921875 6.245606958866119 C 3.7979354858398438 4.742872059345245 4.990638732910156 3.5413995385169983 6.4425506591796875 2.6830203533172607 C 7.558692932128906 2.022568166255951 8.818000793457031 1.5600429773330688 10.34979248046875 1.3371763825416565 C 10.858253479003906 1.2626556754112244 11.384223937988281 1.2321518659591675 11.954826354980469 1.2054237723350525 C 13.622688293457031 1.1267299056053162 15.139373779296875 1.504698932170868 16.280921936035156 2.014818012714386 C 17.486099243164062 2.5536524057388306 18.44751739501953 3.2713364958763123 19.261077880859375 4.160616934299469 C 20.098556518554688 5.075532495975494 20.708641052246094 6.140184998512268 21.09545135498047 7.469932496547699 C 21.29663848876953 8.16178274154663 21.492904663085938 8.902220487594604 21.492904663085938 9.75692331790924 C 21.492904663085938 10.614706337451935 21.311630249023438 11.369849503040314 21.18505859375 12.125092029571533 C 20.711044311523438 14.953202545642853 19.36602020263672 17.265927851200104 17.347396850585938 18.58255970478058 C 16.857818603515625 18.901408970355988 16.265586853027344 19.195914804935455 15.593017578125 19.391953945159912 C 14.925941467285156 19.58630394935608 14.165138244628906 19.731768369674683 13.350204467773438 19.675132632255554 C 12.558616638183594 19.6208815574646 11.911453247070312 19.40566575527191 11.366714477539062 19.09814363718033 C 10.826553344726562 18.79290682077408 10.372566223144531 18.419309675693512 10.050758361816406 17.853647828102112 Z"/></g></svg>