<svg version="1.1" xmlns="http://www.w3.org/2000/svg" xmlns:xlink="http://www.w3.org/1999/xlink" width="28" height="24"><defs/><g><path fill="rgb(243,129,129)" stroke="none" paint-order="stroke fill markers" fill-rule="evenodd" d=" M 18.512603759765625 1.6009167432785034 C 20.547019958496094 1.5645506381988525 21.629745483398438 2.3060813546180725 22.66394805908203 3.248420536518097 C 23.541824340820312 3.173403024673462 24.68268585205078 2.6827586889266968 25.35468292236328 2.3412551283836365 C 25.572463989257812 2.2226181626319885 25.790359497070312 2.1027888655662537 26.008026123046875 1.9842512607574463 C 25.624305725097656 3.02128142118454 25.10382843017578 3.833060324192047 24.304000854492188 4.449495613574982 C 24.126388549804688 4.585918188095093 23.950035095214844 4.771325707435608 23.727447509765625 4.858365893363953 C 23.727447509765625 4.861942887306213 23.727447509765625 4.8666128516197205 23.727447509765625 4.870885372161865 C 24.867164611816406 4.8595582246780396 25.80718231201172 4.345166623592377 26.700050354003906 4.066161096096039 C 26.700050354003906 4.070433616638184 26.700050354003906 4.074507415294647 26.700050354003906 4.079276740550995 C 26.23107147216797 4.824384450912476 25.596267700195312 5.580719947814941 24.91900634765625 6.123131334781647 C 24.645721435546875 6.3400362730026245 24.37232208251953 6.557040572166443 24.099037170410156 6.773945510387421 C 24.113914489746094 7.981081604957581 24.08118438720703 9.132575571537018 23.855506896972656 10.147150158882141 C 22.543899536132812 16.041936814785004 19.068443298339844 20.044294953346252 13.566810607910156 21.758569300174713 C 11.591331481933594 22.374408423900604 8.398773193359375 22.62708330154419 6.1353607177734375 22.06509780883789 C 5.0129241943359375 21.786688446998596 3.9990921020507812 21.47191298007965 3.047515869140625 21.056484878063202 C 2.5190277099609375 20.82517260313034 2.029449462890625 20.57488238811493 1.5612716674804688 20.289319038391113 C 1.4074630737304688 20.19582039117813 1.2537689208984375 20.10222238302231 1.0999603271484375 20.008723735809326 C 1.6104812622070312 20.024124681949615 2.2077484130859375 20.16481977701187 2.7784652709960938 20.072414100170135 C 3.2948226928710938 19.98895090818405 3.8012237548828125 20.01090967655182 4.27752685546875 19.906779408454895 C 5.4656524658203125 19.64555948972702 6.52056884765625 19.301075100898743 7.4294586181640625 18.76939469575882 C 7.87005615234375 18.511453688144684 8.538619995117188 18.20919770002365 8.851730346679688 17.837190330028534 C 8.261672973632812 17.847325146198273 7.726890563964844 17.710306406021118 7.288581848144531 17.555998861789703 C 5.589591979980469 16.956355571746826 4.6007080078125 15.853051662445068 3.9572067260742188 14.19600921869278 C 4.472076416015625 14.252644956111908 5.955116271972656 14.386782228946686 6.3019866943359375 14.094064891338348 C 5.6537933349609375 14.0581955909729 5.030548095703125 13.682710587978363 4.58514404296875 13.40440058708191 C 3.2183761596679688 12.54910159111023 2.1038360595703125 11.115124464035034 2.1121902465820312 8.907821118831635 C 2.2915191650390625 8.99317216873169 2.4709625244140625 9.078324496746063 2.6502914428710938 9.162980020046234 C 2.9936141967773438 9.307748913764954 3.3426589965820312 9.385250449180603 3.7522430419921875 9.470005333423615 C 3.9252777099609375 9.505675911903381 4.2711181640625 9.607024073600769 4.46978759765625 9.53309953212738 C 4.461204528808594 9.53309953212738 4.4526214599609375 9.53309953212738 4.44415283203125 9.53309953212738 C 4.179679870605469 9.226272940635681 3.7489242553710938 9.020496428012848 3.4831924438476562 8.690320014953613 C 2.6063461303710938 7.600727915763855 1.7845458984375 5.923515200614929 2.3044509887695312 3.9255653619766235 C 2.4362869262695312 3.418824553489685 2.6453704833984375 2.9718990325927734 2.8681869506835938 2.5587562322616577 C 2.8766555786132812 2.5630287528038025 2.8852386474609375 2.567102551460266 2.8938217163085938 2.571375072002411 C 2.99578857421875 2.785398542881012 3.2235260009765625 2.94199138879776 3.3678359985351562 3.120841085910797 C 3.815643310546875 3.675771951675415 4.368049621582031 4.175160050392151 4.9309844970703125 4.615130305290222 C 6.848899841308594 6.115480542182922 8.576156616210938 7.036953926086426 11.350204467773438 7.719364881515503 C 12.053901672363281 7.892849087715149 12.867233276367188 8.025197863578796 13.707801818847656 8.026390194892883 C 13.471710205078125 7.3385143876075745 13.547584533691406 6.226267993450165 13.733436584472656 5.560549676418304 C 14.200927734375 3.8873113989830017 15.21624755859375 2.68156635761261 16.706039428710938 2.035422146320343 C 17.062179565429688 1.8805184364318848 17.457229614257812 1.7678431272506714 17.871963500976562 1.677225947380066 C 18.08551025390625 1.6516901850700378 18.299057006835938 1.6259557008743286 18.512603759765625 1.6009167432785034 Z"/></g></svg>