<svg height="448pt" viewBox="0 0 448 448" width="448pt" xmlns="http://www.w3.org/2000/svg"><path d="m64 128h21.332031c0-5.984375 2.316407-8.535156 7.542969-13.769531 8.71875-7.046875 13.785156-17.660157 13.785156-28.871094s-5.066406-21.820313-13.785156-28.867187c-5.226562-5.226563-7.542969-7.800782-7.542969-13.824219 0-6.027344 2.316407-8.535157 7.554688-13.804688 8.609375-7.128906 13.648437-17.683593 13.78125-28.863281h-21.335938c0 5.996094-2.3125 8.535156-7.550781 13.800781-8.609375 7.132813-13.648438 17.6875-13.78125 28.867188.113281 11.195312 5.160156 21.773437 13.792969 28.90625 5.226562 5.238281 7.539062 7.808593 7.539062 13.800781 0 5.996094-2.3125 8.535156-7.539062 13.761719-8.617188 7.125-13.664063 17.683593-13.792969 28.863281zm0 0"/><path d="m277.332031 128h21.335938c0-5.984375 2.3125-8.535156 7.539062-13.769531 8.722657-7.046875 13.792969-17.65625 13.792969-28.871094 0-11.210937-5.070312-21.824219-13.792969-28.867187-5.226562-5.226563-7.539062-7.800782-7.539062-13.824219 0-6.027344 2.3125-8.535157 7.539062-13.804688 8.617188-7.125 13.664063-17.683593 13.792969-28.863281h-21.332031c0 5.996094-2.316407 8.535156-7.542969 13.800781-8.617188 7.128907-13.660156 17.683594-13.792969 28.867188.117188 11.195312 5.160157 21.773437 13.792969 28.90625 5.226562 5.238281 7.542969 7.808593 7.542969 13.800781 0 5.996094-2.316407 8.535156-7.542969 13.761719-8.621094 7.121093-13.667969 17.679687-13.792969 28.863281zm0 0"/><path d="m170.667969 128h21.332031c0-5.984375 2.316406-8.535156 7.542969-13.769531 8.71875-7.046875 13.785156-17.660157 13.785156-28.871094s-5.066406-21.820313-13.785156-28.867187c-5.226563-5.226563-7.542969-7.800782-7.542969-13.824219 0-6.027344 2.316406-8.535157 7.550781-13.804688 8.609375-7.128906 13.652344-17.683593 13.78125-28.863281h-21.332031c0 5.996094-2.316406 8.535156-7.550781 13.800781-8.609375 7.132813-13.652344 17.6875-13.78125 28.867188.113281 11.195312 5.160156 21.773437 13.789062 28.90625 5.226563 5.238281 7.542969 7.808593 7.542969 13.800781 0 5.996094-2.316406 8.535156-7.542969 13.761719-8.617187 7.125-13.660156 17.683593-13.789062 28.863281zm0 0"/><path d="m392.4375 181.332031h-29.867188c0-3.816406 0-7.464843 0-10.664062h-341.121093c-.0625 14.460937-.117188 39.144531-.117188 42.664062 0 87 36.085938 172.152344 90.101563 213.335938h161.140625c35.882812-27.359375 63.765625-74.175781 78.507812-128h41.355469c30.671875-.035157 55.527344-24.890625 55.5625-55.5625v-6.210938c-.035156-30.671875-24.890625-55.527343-55.5625-55.5625zm34.230469 61.773438c-.023438 18.894531-15.335938 34.203125-34.230469 34.226562h-36.171875c4.253906-21.066406 6.398437-42.503906 6.402344-64 0-1.269531 0-5.332031 0-10.664062h29.789062c18.886719.035156 34.1875 15.339843 34.210938 34.226562zm0 0"/><path d="m0 426.667969h384v21.332031h-384zm0 0"/></svg>