<svg version="1.1" xmlns="http://www.w3.org/2000/svg" xmlns:xlink="http://www.w3.org/1999/xlink" width="19" height="19"><defs/><g><path fill="rgb(255,255,255)" stroke="none" paint-order="stroke fill markers" fill-rule="evenodd" d=" M 15.30024528503418 15.301297903060913 C 14.698572158813477 15.258674025535583 14.009952545166016 15.224993228912354 13.266744613647461 15.199534296989441 C 13.944892883300781 14.608209133148193 14.517383575439453 13.841700553894043 14.938211441040039 12.949844598770142 C 15.14369010925293 13.157482743263245 15.399036407470703 13.309226632118225 15.688457489013672 13.379905819892883 C 15.815143585205078 13.411350846290588 15.94320297241211 13.426496386528015 16.070404052734375 13.426496386528015 C 16.361370086669922 13.426496386528015 16.647615432739258 13.345792293548584 16.902360916137695 13.18892776966095 C 17.26851463317871 12.963259220123291 17.526092529296875 12.607194781303406 17.627201080322266 12.185932397842407 C 17.72848129272461 11.764453649520874 17.661190032958984 11.328766942024231 17.4381160736084 10.958783030509949 C 17.064151763916016 10.338248610496521 16.34265899658203 10.068802237510681 15.679702758789062 10.235691666603088 C 15.708541870117188 9.946483969688416 15.728025436401367 9.653598070144653 15.728025436401367 9.354870319366455 C 15.728025436401367 9.042800068855286 15.47825813293457 8.78979742527008 15.169439315795898 8.78979742527008 C 15.169439315795898 8.78979742527008 4.828987121582031 8.78979742527008 4.828987121582031 8.78979742527008 C 4.520511627197266 8.78979742527008 4.270315170288086 9.042800068855286 4.270315170288086 9.354870319366455 C 4.270315170288086 11.772891879081726 5.244665145874023 13.909711241722107 6.728420257568359 15.199822783470154 C 5.98658561706543 15.225209593772888 5.299081802368164 15.259106755256653 4.698352813720703 15.301297903060913 C 2.6070022583007812 15.449219346046448 1.9989776611328125 15.58992862701416 1.9989776611328125 16.237292289733887 C 1.9989776611328125 16.884223222732544 2.6070022583007812 17.025293111801147 4.698352813720703 17.173142433166504 C 6.116275787353516 17.27346360683441 7.9988861083984375 17.32878088951111 9.999256134033203 17.32878088951111 C 11.999540328979492 17.32878088951111 13.882150650024414 17.27346360683441 15.30024528503418 17.173142433166504 C 17.391510009765625 17.025293111801147 17.99936294555664 16.884223222732544 17.99936294555664 16.237292289733887 C 17.99936294555664 15.58992862701416 17.391510009765625 15.449219346046448 15.30024528503418 15.301297903060913 Z M 15.568037033081055 11.000757813453674 C 15.57215690612793 10.99765658378601 15.57687759399414 10.99852204322815 15.580997467041016 10.995420813560486 C 16.020965576171875 10.724820494651794 16.59740447998047 10.866250991821289 16.865625381469727 11.311313509941101 C 16.99565887451172 11.526596546173096 17.0345401763916 11.780681014060974 16.97566032409668 12.026110887527466 C 16.916780471801758 12.271396517753601 16.767091751098633 12.478674054145813 16.553544998168945 12.60986328125 C 16.340341567993164 12.741485238075256 16.088943481445312 12.780791521072388 15.846729278564453 12.721651792526245 C 15.604085922241211 12.661862969398499 15.398778915405273 12.510407567024231 15.269088745117188 12.294475436210632 C 15.25853157043457 12.276805639266968 15.242395401000977 12.265915274620056 15.229177474975586 12.25113034248352 C 15.372343063354492 11.852009296417236 15.485038757324219 11.433559656143188 15.568037033081055 11.000757813453674 Z M 5.407915115356445 9.91951048374176 C 5.407915115356445 9.91951048374176 14.590682983398438 9.91951048374176 14.590682983398438 9.91951048374176 C 14.37112808227539 12.963908314704895 12.395734786987305 15.354379415512085 9.999256134033203 15.354379415512085 C 7.602863311767578 15.354379415512085 5.627555847167969 12.963908314704895 5.407915115356445 9.91951048374176 Z M 8.96336555480957 7.6353466510772705 C 8.96336555480957 7.6353466510772705 9.001045227050781 7.63700544834137 9.001045227050781 7.63700544834137 C 9.138374328613281 7.63700544834137 9.270896911621094 7.571374773979187 9.355955123901367 7.460523843765259 C 9.450197219848633 7.337195873260498 9.475173950195312 7.175859808921814 9.42281723022461 7.0299577713012695 C 9.418354034423828 7.017480731010437 8.989973068237305 5.769127607345581 9.546327590942383 4.729782938957214 C 10.13692855834961 3.7395530939102173 10.329360961914062 2.9425370693206787 10.117959976196289 2.360515594482422 C 9.92818832397461 1.8375617265701294 9.500236511230469 1.698799729347229 9.453201293945312 1.6852408647537231 C 9.21879768371582 1.6157156229019165 8.964653015136719 1.7546939849853516 8.895559310913086 1.9902431964874268 C 8.825263977050781 2.2296148538589478 8.96087646484375 2.4825453758239746 9.178886413574219 2.546805739402771 C 9.181461334228516 2.5478875637054443 9.241886138916016 2.5780344009399414 9.27647590637207 2.6732349395751953 C 9.327373504638672 2.8129345178604126 9.381532669067383 3.2459527254104614 8.792905807495117 4.237552881240845 C 8.792905807495117 4.237552881240845 8.771276473999023 4.27426278591156 8.771276473999023 4.27426278591156 C 8.726301193237305 4.349197149276733 8.677806854248047 4.426944255828857 8.625364303588867 4.5079368352890015 C 7.944211959838867 5.563725233078003 7.740106582641602 6.395143270492554 8.018884658813477 6.977958083152771 C 8.243160247802734 7.448407411575317 8.71591567993164 7.612267732620239 8.96336555480957 7.6353466510772705 Z M 11.347742080688477 7.7192240953445435 C 11.347742080688477 7.7192240953445435 11.379070281982422 7.720233798027039 11.379070281982422 7.720233798027039 C 11.507816314697266 7.720233798027039 11.632099151611328 7.658858299255371 11.711835861206055 7.555363774299622 C 11.801013946533203 7.439320087432861 11.824703216552734 7.287648320198059 11.775436401367188 7.15004026889801 C 11.773033142089844 7.142900228500366 11.533222198486328 6.434882283210754 11.838521957397461 5.863967537879944 C 12.230768203735352 5.2069395780563354 12.349815368652344 4.689250588417053 12.20184326171875 4.281402826309204 C 12.064685821533203 3.9044231176376343 11.758871078491211 3.7944376468658447 11.697244644165039 3.775758147239685 C 11.4794921875 3.7117862701416016 11.237621307373047 3.845716118812561 11.17436408996582 4.063234925270081 C 11.142091751098633 4.172138571739197 11.153850555419922 4.28724467754364 11.20758056640625 4.387421607971191 C 11.260795593261719 4.487093687057495 11.349630355834961 4.5600807666778564 11.456918716430664 4.5923912525177 C 11.430997848510742 4.5851069688797 11.412458419799805 4.576812982559204 11.410999298095703 4.576091766357422 C 11.419153213500977 4.598233103752136 11.480436325073242 4.812578558921814 11.129732131958008 5.403038263320923 C 11.129732131958008 5.403038263320923 11.103982925415039 5.446094870567322 11.103982925415039 5.446094870567322 C 11.079607009887695 5.486266613006592 11.053600311279297 5.528169274330139 11.026134490966797 5.570865273475647 C 10.571231842041016 6.275493502616882 10.44651985168457 6.819146275520325 10.644359588623047 7.232114672660828 C 10.798511505126953 7.555796504020691 11.114797592163086 7.696505784988403 11.347742080688477 7.7192240953445435 Z"/></g></svg>