<svg version="1.1" xmlns="http://www.w3.org/2000/svg" xmlns:xlink="http://www.w3.org/1999/xlink" width="74" height="73"><defs/><g><path fill="rgb(255,255,255)" stroke="none" paint-order="stroke fill markers" fill-rule="evenodd" d=" M 36.99897003173828 1.023176670074463 C 17.406570434570312 1.023176670074463 1.5233154296875 16.907504558563232 1.5233154296875 36.499539375305176 C 1.5233154296875 56.09310841560364 17.406570434570312 71.97641348838806 36.99897003173828 71.97641348838806 C 56.59228515625 71.97641348838806 72.47657012939453 56.09310841560364 72.47657012939453 36.499539375305176 C 72.47657012939453 16.907504558563232 56.59228515625 1.023176670074463 36.99897003173828 1.023176670074463 Z M 36.99988555908203 45.80255961418152 C 36.28131103515625 45.80255961418152 35.57841491699219 45.75806713104248 34.89154052734375 45.669082164764404 C 31.987258911132812 48.57490158081055 28.518783569335938 49.094491958618164 25.167037963867188 49.171714544296265 C 25.167037963867188 49.171714544296265 25.167037963867188 48.46034622192383 25.167037963867188 48.46034622192383 C 26.976577758789062 47.574076414108276 28.546478271484375 45.958027601242065 28.546478271484375 44.11286807060242 C 28.546478271484375 43.85562992095947 28.52667999267578 43.602994441986084 28.48914337158203 43.355473041534424 C 25.43242645263672 41.33899188041687 23.476402282714844 38.26287364959717 23.476402282714844 34.8149619102478 C 23.476402282714844 28.74710774421692 29.53032684326172 23.82634139060974 36.99988555908203 23.82634139060974 C 44.469444274902344 23.82634139060974 50.52348327636719 28.74710774421692 50.52348327636719 34.8149619102478 C 50.52348327636719 40.88383889198303 44.469444274902344 45.80255961418152 36.99988555908203 45.80255961418152 Z"/></g></svg>