<svg version="1.1" xmlns="http://www.w3.org/2000/svg" xmlns:xlink="http://www.w3.org/1999/xlink" width="15" height="18"><defs/><g><path fill="rgb(255,255,255)" stroke="none" paint-order="stroke fill markers" fill-rule="evenodd" d=" M 13.219606399536133 14.988544821739197 C 13.219606399536133 14.988544821739197 10.154850006103516 6.697731852531433 10.154850006103516 6.697731852531433 C 10.154850006103516 6.697731852531433 10.154850006103516 4.258001685142517 10.154850006103516 4.258001685142517 C 10.73300552368164 4.058008432388306 11.149198532104492 3.5106053352355957 11.149198532104492 2.8689392805099487 C 11.149198532104492 2.8689392805099487 11.149198532104492 2.4707558155059814 11.149198532104492 2.4707558155059814 C 11.149198532104492 1.6596760749816895 10.485641479492188 1.0001959800720215 9.669906616210938 1.0001959800720215 C 9.669906616210938 1.0001959800720215 5.295459747314453 1.0001959800720215 5.295459747314453 1.0001959800720215 C 4.47981071472168 1.0001959800720215 3.8161678314208984 1.6596760749816895 3.8161678314208984 2.4707558155059814 C 3.8161678314208984 2.4707558155059814 3.8161678314208984 2.8689392805099487 3.8161678314208984 2.8689392805099487 C 3.8161678314208984 3.51002836227417 4.231245040893555 4.056638121604919 4.810859680175781 4.257352590560913 C 4.810859680175781 4.257352590560913 4.810859680175781 6.697731852531433 4.810859680175781 6.697731852531433 C 4.810859680175781 6.697731852531433 1.7519397735595703 14.972533822059631 1.7519397735595703 14.972533822059631 C 1.5656013488769531 15.42625093460083 1.6189022064208984 15.940261721611023 1.8941612243652344 16.34861433506012 C 2.1695919036865234 16.755524516105652 2.62835693359375 16.998141646385193 3.1218833923339844 16.998141646385193 C 3.1218833923339844 16.998141646385193 11.843740463256836 16.998141646385193 11.843740463256836 16.998141646385193 C 12.337181091308594 16.998141646385193 12.79594612121582 16.755524516105652 13.071290969848633 16.34782099723816 C 13.346549987792969 15.940261721611023 13.399850845336914 15.426467299461365 13.219606399536133 14.988544821739197 Z M 5.109464645385742 13.108983278274536 C 5.109464645385742 12.830954432487488 5.334941864013672 12.607738018035889 5.612432479858398 12.607738018035889 C 5.892068862915039 12.607738018035889 6.117717742919922 12.830954432487488 6.117717742919922 13.108983278274536 C 6.117717742919922 13.386507272720337 5.892068862915039 13.610156416893005 5.612432479858398 13.610156416893005 C 5.334941864013672 13.610156416893005 5.109464645385742 13.386507272720337 5.109464645385742 13.108983278274536 Z M 8.359014511108398 13.546112418174744 C 8.840782165527344 13.546112418174744 9.230367660522461 13.934775829315186 9.230367660522461 14.411067008972168 C 9.230367660522461 14.889521837234497 8.840782165527344 15.278185248374939 8.359014511108398 15.278185248374939 C 7.876731872558594 15.278185248374939 7.488004684448242 14.889521837234497 7.488004684448242 14.411067008972168 C 7.488004684448242 13.934775829315186 7.876731872558594 13.546112418174744 8.359014511108398 13.546112418174744 Z M 7.617351531982422 11.647943496704102 C 7.617351531982422 11.304860949516296 7.89879035949707 11.023875117301941 8.246061325073242 11.023875117301941 C 8.591529846191406 11.023875117301941 8.872797012329102 11.304860949516296 8.872797012329102 11.647943496704102 C 8.872797012329102 11.992035746574402 8.591529846191406 12.271939754486084 8.246061325073242 12.271939754486084 C 7.89879035949707 12.271939754486084 7.617351531982422 11.992035746574402 7.617351531982422 11.647943496704102 Z M 5.789243698120117 6.870535254478455 C 5.789243698120117 6.870535254478455 5.789243698120117 3.8529666662216187 5.789243698120117 3.8529666662216187 C 5.789243698120117 3.8529666662216187 5.7848663330078125 3.3664342164993286 5.7848663330078125 3.3664342164993286 C 5.7848663330078125 3.3664342164993286 5.295459747314453 3.3664342164993286 5.295459747314453 3.3664342164993286 C 5.019428253173828 3.3664342164993286 4.794637680053711 3.1431456804275513 4.794637680053711 2.8689392805099487 C 4.794637680053711 2.8689392805099487 4.794637680053711 2.4707558155059814 4.794637680053711 2.4707558155059814 C 4.794637680053711 2.196188807487488 5.019428253173828 1.9729002714157104 5.295459747314453 1.9729002714157104 C 5.295459747314453 1.9729002714157104 9.669906616210938 1.9729002714157104 9.669906616210938 1.9729002714157104 C 9.946023941040039 1.9729002714157104 10.170642852783203 2.196188807487488 10.170642852783203 2.4707558155059814 C 10.170642852783203 2.4707558155059814 10.170642852783203 2.8689392805099487 10.170642852783203 2.8689392805099487 C 10.170642852783203 3.1431456804275513 9.946023941040039 3.3664342164993286 9.665529251098633 3.3664342164993286 C 9.665529251098633 3.3664342164993286 9.176294326782227 3.3664342164993286 9.176294326782227 3.3664342164993286 C 9.176294326782227 3.3664342164993286 9.176294326782227 6.870535254478455 9.176294326782227 6.870535254478455 C 9.176294326782227 6.870535254478455 10.034601211547852 9.191913843154907 10.034601211547852 9.191913843154907 C 10.023099899291992 9.202876329421997 10.012971878051758 9.210160613059998 10.001298904418945 9.221988558769226 C 9.362289428710938 9.881829261779785 4.692928314208984 9.958133935928345 4.692928314208984 9.958133935928345 C 4.692928314208984 9.958133935928345 4.647867202758789 9.958133935928345 4.647867202758789 9.958133935928345 C 4.647867202758789 9.958133935928345 5.789243698120117 6.870535254478455 5.789243698120117 6.870535254478455 Z M 7.142450332641602 8.744182825088501 C 7.517358779907227 8.744182825088501 7.822916030883789 8.440118074417114 7.822916030883789 8.065806865692139 C 7.822916030883789 7.693442940711975 7.517358779907227 7.388584852218628 7.142450332641602 7.388584852218628 C 6.7653961181640625 7.388584852218628 6.460268020629883 7.693442940711975 6.460268020629883 8.065806865692139 C 6.460268020629883 8.440118074417114 6.7653961181640625 8.744182825088501 7.142450332641602 8.744182825088501 Z"/></g></svg>