<svg version="1.1" xmlns="http://www.w3.org/2000/svg" xmlns:xlink="http://www.w3.org/1999/xlink" width="19" height="18"><defs/><g><path fill="rgb(255,255,255)" stroke="none" paint-order="stroke fill markers" fill-rule="evenodd" d=" M 17.435842514038086 1.5332131385803223 C 17.38554573059082 1.4948444366455078 17.31765365600586 1.487776517868042 17.262292861938477 1.5167694091796875 C 17.262292861938477 1.5167694091796875 1.5840301513671875 9.466158628463745 1.5840301513671875 9.466158628463745 C 1.525064468383789 9.495728492736816 1.4910755157470703 9.557103991508484 1.496225357055664 9.622085571289062 C 1.5019760131835938 9.68670654296875 1.5461788177490234 9.741807460784912 1.6083202362060547 9.761857271194458 C 1.6083202362060547 9.761857271194458 6.570278167724609 11.326607942581177 6.570278167724609 11.326607942581177 C 6.62469482421875 11.343772888183594 6.684947967529297 11.331512212753296 6.726919174194336 11.292927145957947 C 6.726919174194336 11.292927145957947 14.274097442626953 4.896316409111023 14.274097442626953 4.896316409111023 C 14.274097442626953 4.896316409111023 8.477092742919922 11.699548840522766 8.477092742919922 11.699548840522766 C 8.442159652709961 11.740441799163818 8.430315017700195 11.796336054801941 8.445335388183594 11.848552107810974 C 8.461042404174805 11.899614214897156 8.501382827758789 11.940290808677673 8.55331039428711 11.95586907863617 C 8.55331039428711 11.95586907863617 14.376922607421875 13.71491539478302 14.376922607421875 13.71491539478302 C 14.39228630065918 13.71938693523407 14.40799331665039 13.721983313560486 14.423700332641602 13.721983313560486 C 14.451509475708008 13.721983313560486 14.47940444946289 13.714410543441772 14.503780364990234 13.700779557228088 C 14.542146682739258 13.678493976593018 14.570384979248047 13.642649531364441 14.580942153930664 13.599520802497864 C 14.580942153930664 13.599520802497864 17.492233276367188 1.6974340677261353 17.492233276367188 1.6974340677261353 C 17.506996154785156 1.6360585689544678 17.48493766784668 1.5722309350967407 17.435842514038086 1.5332131385803223 Z M 10.257392883300781 13.694072246551514 C 10.257392883300781 13.694072246551514 8.648153305053711 13.203140377998352 8.648153305053711 13.203140377998352 C 8.599401473999023 13.187129378318787 8.545928955078125 13.196649432182312 8.504644393920898 13.227228999137878 C 8.463016510009766 13.257375836372375 8.438983917236328 13.305336713790894 8.438983917236328 13.355966091156006 C 8.438983917236328 13.355966091156006 8.438983917236328 16.368197679519653 8.438983917236328 16.368197679519653 C 8.438983917236328 16.439598083496094 8.48636245727539 16.50227177143097 8.555885314941406 16.522321581840515 C 8.570304870605469 16.52614402770996 8.585325241088867 16.52859616279602 8.600688934326172 16.52859616279602 C 8.654848098754883 16.52859616279602 8.706432342529297 16.50104570388794 8.737159729003906 16.45402240753174 C 8.737159729003906 16.45402240753174 10.346399307250977 13.93243420124054 10.346399307250977 13.93243420124054 C 10.373607635498047 13.890459418296814 10.379100799560547 13.83824336528778 10.361505508422852 13.791869163513184 C 10.34382438659668 13.74491798877716 10.305458068847656 13.708640813827515 10.257392883300781 13.694072246551514 Z"/></g></svg>